<svg width="16" height="20" viewBox="0 0 16 20" fill="none" xmlns="http://www.w3.org/2000/svg">
<path d="M10 0H2C1.46957 0 0.960859 0.210714 0.585786 0.585786C0.210714 0.960859 0 1.46957 0 2V18C0 18.5304 0.210714 19.0391 0.585786 19.4142C0.960859 19.7893 1.46957 20 2 20H14C14.5304 20 15.0391 19.7893 15.4142 19.4142C15.7893 19.0391 16 18.5304 16 18V6L10 0ZM9 2L14 7H9V2ZM4.531 16H3.771V14.589H2.515V16H1.748V12.627H2.515V13.923H3.772V12.627H4.532L4.531 16ZM7.531 13.268H6.61V16H5.844V13.268H4.939V12.627H7.531V13.268ZM10.818 16L10.768 14.709C10.751 14.304 10.738 13.813 10.738 13.322H10.722C10.618 13.753 10.477 14.233 10.347 14.629L9.937 15.945H9.34L8.981 14.638C8.85949 14.2041 8.75738 13.765 8.675 13.322H8.664C8.643 13.778 8.63 14.298 8.605 14.718L8.545 16H7.84L8.056 12.627H9.071L9.402 13.753C9.506 14.144 9.612 14.564 9.686 14.959H9.703C9.798 14.568 9.912 14.123 10.023 13.748L10.382 12.627H11.378L11.563 16H10.818ZM14.252 16H12.144V12.627H12.911V15.359H14.253L14.252 16Z" fill="#1431CA"/>
</svg>
