<svg width="18" height="24" viewBox="0 0 18 24" fill="none" xmlns="http://www.w3.org/2000/svg">
<path d="M5.85228 18.5588C5.85228 18.5588 4.93428 19.0935 6.50403 19.2728C8.40603 19.4918 9.37878 19.461 11.4728 19.062C11.4728 19.062 12.0225 19.41 12.7928 19.7108C8.09403 21.723 2.16078 19.59 5.85228 18.5588ZM5.27703 15.9338C5.27703 15.9338 4.24578 16.695 5.81628 16.8547C7.85253 17.0655 9.45303 17.0858 12.2303 16.551C12.2303 16.551 12.6135 16.938 13.2195 17.1517C7.53978 18.8115 1.21053 17.2808 5.27703 15.9338ZM10.1168 11.4773C11.2725 12.8093 9.81153 14.0085 9.81153 14.0085C9.81153 14.0085 12.7493 12.4882 11.4015 10.5907C10.1408 8.817 9.17178 7.93875 14.4053 4.90275C14.4053 4.90275 6.19053 6.954 10.116 11.478L10.1168 11.4773ZM16.3283 20.5042C16.3283 20.5042 17.0085 21.0623 15.582 21.4965C12.8708 22.3163 4.29678 22.5622 1.91403 21.5272C1.05903 21.156 2.66403 20.637 3.16803 20.5312C3.69528 20.4143 3.99603 20.4382 3.99603 20.4382C3.04278 19.7662 -2.15997 21.7545 1.35228 22.3245C10.9343 23.8793 18.816 21.6255 16.3283 20.5042ZM6.29328 13.2113C6.29328 13.2113 1.93053 14.2463 4.74603 14.6213C5.93778 14.781 8.30928 14.7465 10.5203 14.559C12.324 14.406 14.1375 14.082 14.1375 14.082C14.1375 14.082 13.5008 14.355 13.0395 14.6722C8.60928 15.8362 0.0517766 15.2932 2.51628 14.1022C4.59828 13.098 6.29328 13.2113 6.29328 13.2113ZM14.1173 17.586C18.6173 15.2423 16.5353 12.996 15.0863 13.3013C14.73 13.371 14.5703 13.4385 14.5703 13.4385C14.5703 13.4385 14.6993 13.2307 14.9535 13.1415C17.8283 12.1297 20.0393 16.1213 14.0273 17.7038C14.0273 17.7 14.0985 17.6408 14.1173 17.586ZM11.4023 0C11.4023 0 13.8953 2.49225 9.03528 6.32775C5.14128 9.40575 8.14803 11.16 9.03528 13.164C6.76203 11.1127 5.09403 9.309 6.21153 7.629C7.85553 5.15625 12.4065 3.96075 11.4023 0ZM6.73428 23.9257C11.055 24.1987 17.691 23.7697 17.8523 21.7267C17.8523 21.7267 17.547 22.5 14.277 23.1165C10.59 23.8118 6.03903 23.7293 3.33978 23.2845C3.33978 23.2845 3.89553 23.7412 6.73428 23.9257Z" fill="#CB0C0C"/>
</svg>
