<svg width="22" height="22" viewBox="0 0 22 22" fill="none" xmlns="http://www.w3.org/2000/svg">
<path d="M9.55399 5.24L6.17099 1.335C5.78099 0.885 5.06599 0.887 4.61299 1.341L1.83099 4.128C1.00299 4.957 0.765988 6.188 1.24499 7.175C4.10661 13.1 8.88503 17.8851 14.806 20.755C15.792 21.234 17.022 20.997 17.85 20.168L20.658 17.355C21.113 16.9 21.114 16.181 20.66 15.791L16.74 12.426C16.33 12.074 15.693 12.12 15.282 12.532L13.918 13.898C13.8482 13.9712 13.7562 14.0194 13.6563 14.0353C13.5564 14.0512 13.4541 14.0339 13.365 13.986C11.1354 12.7021 9.28598 10.8502 8.00499 8.619C7.95702 8.52975 7.93964 8.42723 7.95554 8.32716C7.97144 8.22708 8.01972 8.13499 8.09299 8.065L9.45299 6.704C9.86499 6.29 9.90999 5.65 9.55399 5.239V5.24Z" stroke="#2F80ED" stroke-width="2" stroke-linecap="round" stroke-linejoin="round"/>
</svg>
