<svg width="50" height="50" viewBox="0 0 50 50" fill="none" xmlns="http://www.w3.org/2000/svg">
<path d="M25.0001 2.77783C20.6049 2.77783 16.3085 4.08114 12.6541 6.52295C8.99963 8.96476 6.15135 12.4354 4.46941 16.496C2.78746 20.5566 2.34739 25.0247 3.20484 29.3354C4.06228 33.6461 6.17875 37.6057 9.28658 40.7135C12.3944 43.8214 16.354 45.9378 20.6647 46.7953C24.9754 47.6527 29.4436 47.2127 33.5041 45.5307C37.5647 43.8488 41.0354 41.0005 43.4772 37.3461C45.919 33.6916 47.2223 29.3952 47.2223 25.0001C47.2223 19.1064 44.881 13.454 40.7135 9.28657C36.5461 5.1191 30.8938 2.77783 25.0001 2.77783ZM39.514 17.5417L21.264 35.7778L10.4862 25.0001C10.1178 24.6317 9.91088 24.1321 9.91088 23.6112C9.91088 23.0902 10.1178 22.5906 10.4862 22.2223C10.8545 21.8539 11.3541 21.647 11.8751 21.647C12.396 21.647 12.8956 21.8539 13.264 22.2223L21.2917 30.2501L36.764 14.7917C36.9463 14.6093 37.1629 14.4646 37.4012 14.3659C37.6395 14.2672 37.8949 14.2164 38.1528 14.2164C38.4108 14.2164 38.6662 14.2672 38.9045 14.3659C39.1428 14.4646 39.3593 14.6093 39.5417 14.7917C39.7241 14.9741 39.8688 15.1906 39.9675 15.4289C40.0662 15.6673 40.117 15.9227 40.117 16.1806C40.117 16.4385 40.0662 16.694 39.9675 16.9323C39.8688 17.1706 39.7241 17.3871 39.5417 17.5695L39.514 17.5417Z" fill="#2870D0"/>
</svg>
