<svg width="24" height="26" viewBox="0 0 24 26" fill="none" xmlns="http://www.w3.org/2000/svg">
<path d="M11.3683 0.00295307C9.33905 0.0274499 4.97625 0.360923 2.53605 2.59962C0.72091 4.39816 0.0871537 7.05725 0.012873 10.3454C-0.0487642 13.6216 -0.123045 19.7743 5.80756 21.4495V24.0012C5.80756 24.0012 5.77042 25.0221 6.44527 25.2315C7.27658 25.4947 7.74992 24.7092 8.54014 23.8652L10.0139 22.1987C14.0717 22.5361 17.1796 21.7585 17.5376 21.6431C18.361 21.38 22.9988 20.7873 23.7566 14.6339C24.5342 8.27893 23.3781 4.27488 21.2911 2.4637H21.2785C20.6487 1.88368 18.1176 0.0393032 12.4628 0.0187575C12.4628 0.0187575 12.0432 -0.00890023 11.3683 0.00295307ZM11.4379 1.78964C12.014 1.78569 12.364 1.81019 12.364 1.81019C17.1504 1.82283 19.4349 3.2634 19.9738 3.7486C21.7313 5.25476 22.6369 8.86448 21.9739 14.17C21.3441 19.3144 17.5826 19.6399 16.8864 19.862C16.5901 19.9568 13.8528 20.6317 10.4043 20.4096C10.4043 20.4096 7.83605 23.5088 7.03319 24.307C6.90597 24.4468 6.7574 24.4879 6.66258 24.4674C6.52666 24.4342 6.48557 24.2659 6.49347 24.0351L6.51797 19.8003C1.48822 18.4096 1.78455 13.1617 1.83828 10.4204C1.89992 7.67915 2.41435 5.43651 3.9458 3.9177C6.00748 2.05358 9.71204 1.80228 11.4363 1.78964H11.4379ZM11.8172 4.53013C11.7758 4.52971 11.7347 4.53749 11.6963 4.55302C11.658 4.56855 11.623 4.59152 11.5936 4.62061C11.5641 4.6497 11.5407 4.68433 11.5247 4.72251C11.5087 4.76068 11.5004 4.80165 11.5003 4.84305C11.5003 5.02006 11.6441 5.15993 11.8172 5.15993C12.6007 5.14503 13.3794 5.28539 14.1084 5.57292C14.8374 5.86045 15.5022 6.28946 16.0646 6.8352C17.2128 7.9502 17.7723 9.44846 17.7936 11.4074C17.7936 11.5805 17.9335 11.7243 18.1105 11.7243V11.7116C18.1939 11.7119 18.274 11.6791 18.3334 11.6205C18.3928 11.5618 18.4265 11.4821 18.4274 11.3987C18.4657 10.4767 18.3162 9.55641 17.9879 8.69393C17.6595 7.83144 17.1593 7.04473 16.5174 6.38161C15.2665 5.15914 13.6813 4.52934 11.8172 4.52934V4.53013ZM7.65193 5.25476C7.42826 5.22208 7.20014 5.26697 7.00553 5.38198H6.98894C6.53714 5.64682 6.13014 5.98154 5.78306 6.37371C5.49463 6.70718 5.33817 7.04461 5.29708 7.36939C5.27258 7.56299 5.28917 7.7566 5.34686 7.94151L5.36741 7.95415C5.69219 8.90874 6.11654 9.82697 6.63492 10.6915C7.30267 11.906 8.12445 13.0292 9.07986 14.0333L9.10831 14.0744L9.15335 14.1076L9.1818 14.1408L9.21499 14.1692C10.2227 15.1274 11.3487 15.9531 12.5655 16.626C13.9563 17.3831 14.8003 17.741 15.3068 17.8896V17.8975C15.4554 17.9425 15.5905 17.9631 15.7264 17.9631C16.1581 17.9315 16.5668 17.7562 16.8872 17.4652C17.2776 17.1181 17.6086 16.7094 17.8671 16.2554V16.2475C18.1097 15.7908 18.0275 15.3585 17.6775 15.0661C16.9764 14.4533 16.2183 13.909 15.4135 13.4407C14.8745 13.1483 14.3269 13.3253 14.1049 13.6216L13.6315 14.2182C13.3889 14.5146 12.948 14.4735 12.948 14.4735L12.9353 14.4814C9.64724 13.6414 8.77009 10.3122 8.77009 10.3122C8.77009 10.3122 8.729 9.85937 9.03324 9.62863L9.6259 9.15133C9.90959 8.92059 10.1071 8.37376 9.80291 7.83404C9.33779 7.02813 8.79467 6.26984 8.18138 5.57006C8.04731 5.40508 7.85921 5.29284 7.65035 5.25318L7.65193 5.25476ZM12.364 6.19354C11.9444 6.19354 11.9444 6.8273 12.368 6.8273C12.8897 6.83576 13.4047 6.94696 13.8835 7.15455C14.3623 7.36214 14.7954 7.66205 15.1582 8.03712C15.4892 8.40221 15.7435 8.83002 15.9061 9.29519C16.0688 9.76036 16.1363 10.2534 16.1049 10.7452C16.1064 10.8284 16.1403 10.9078 16.1996 10.9663C16.2588 11.0248 16.3386 11.0577 16.4218 11.0581L16.4344 11.0747C16.5183 11.0741 16.5985 11.0405 16.6578 10.9812C16.7171 10.9219 16.7507 10.8417 16.7513 10.7579C16.7798 9.50219 16.3894 8.44883 15.6237 7.60487C14.854 6.76092 13.7801 6.28758 12.4091 6.19354H12.364ZM12.8832 7.89725C12.4509 7.88461 12.4343 8.53101 12.8626 8.54366C13.9042 8.59739 14.4099 9.12368 14.4763 10.2063C14.4777 10.2885 14.5113 10.3668 14.5698 10.4246C14.6282 10.4823 14.707 10.5149 14.7892 10.5153H14.8018C14.8441 10.5134 14.8856 10.5032 14.9238 10.4852C14.9621 10.4672 14.9964 10.4418 15.0247 10.4103C15.053 10.3789 15.0748 10.3422 15.0888 10.3023C15.1028 10.2624 15.1086 10.22 15.1061 10.1778C15.0318 8.7665 14.2621 7.97154 12.8958 7.89805H12.8832V7.89725Z" fill="#2F80ED"/>
</svg>
